<mxfile host="65bd71144e">
    <diagram id="XKdseKVhSnQ_ao32uOEN" name="Страница 1">
        <mxGraphModel dx="1444" dy="498" grid="1" gridSize="10" guides="1" tooltips="1" connect="1" arrows="1" fold="1" page="1" pageScale="1" pageWidth="827" pageHeight="1169" math="0" shadow="0">
            <root>
                <mxCell id="0"/>
                <mxCell id="1" parent="0"/>
                <mxCell id="2" value="&lt;font size=&quot;3&quot;&gt;controller.py&lt;/font&gt;" style="rounded=0;whiteSpace=wrap;html=1;" vertex="1" parent="1">
                    <mxGeometry x="360" y="160" width="120" height="80" as="geometry"/>
                </mxCell>
                <mxCell id="3" value="&lt;font size=&quot;3&quot;&gt;logs.py&lt;/font&gt;" style="rounded=0;whiteSpace=wrap;html=1;" vertex="1" parent="1">
                    <mxGeometry x="480" y="40" width="120" height="80" as="geometry"/>
                </mxCell>
                <mxCell id="4" value="&lt;font size=&quot;3&quot;&gt;operation.py&lt;/font&gt;" style="rounded=0;whiteSpace=wrap;html=1;" vertex="1" parent="1">
                    <mxGeometry x="240" y="40" width="120" height="80" as="geometry"/>
                </mxCell>
                <mxCell id="5" value="&lt;font size=&quot;3&quot;&gt;configs.py&lt;/font&gt;" style="rounded=0;whiteSpace=wrap;html=1;" vertex="1" parent="1">
                    <mxGeometry x="360" y="280" width="120" height="80" as="geometry"/>
                </mxCell>
                <mxCell id="6" value="" style="endArrow=classic;html=1;fontSize=18;entryX=1;entryY=0.5;entryDx=0;entryDy=0;exitX=0;exitY=0.5;exitDx=0;exitDy=0;" edge="1" parent="1" source="3" target="4">
                    <mxGeometry width="50" height="50" relative="1" as="geometry">
                        <mxPoint x="250" y="220" as="sourcePoint"/>
                        <mxPoint x="300" y="170" as="targetPoint"/>
                    </mxGeometry>
                </mxCell>
                <mxCell id="7" value="" style="endArrow=classic;html=1;fontSize=18;entryX=0.5;entryY=1;entryDx=0;entryDy=0;exitX=0.5;exitY=0;exitDx=0;exitDy=0;" edge="1" parent="1" source="5" target="2">
                    <mxGeometry width="50" height="50" relative="1" as="geometry">
                        <mxPoint x="650" y="280" as="sourcePoint"/>
                        <mxPoint x="530" y="280" as="targetPoint"/>
                    </mxGeometry>
                </mxCell>
                <mxCell id="8" value="" style="endArrow=classic;html=1;fontSize=18;entryX=1;entryY=0.5;entryDx=0;entryDy=0;" edge="1" parent="1" target="2">
                    <mxGeometry width="50" height="50" relative="1" as="geometry">
                        <mxPoint x="540" y="200" as="sourcePoint"/>
                        <mxPoint x="520" y="210" as="targetPoint"/>
                    </mxGeometry>
                </mxCell>
                <mxCell id="9" value="" style="endArrow=classic;html=1;fontSize=18;entryX=0;entryY=0.5;entryDx=0;entryDy=0;" edge="1" parent="1" target="2">
                    <mxGeometry width="50" height="50" relative="1" as="geometry">
                        <mxPoint x="300" y="200" as="sourcePoint"/>
                        <mxPoint x="170" y="150" as="targetPoint"/>
                    </mxGeometry>
                </mxCell>
                <mxCell id="10" value="" style="endArrow=none;html=1;fontSize=18;entryX=0.5;entryY=1;entryDx=0;entryDy=0;" edge="1" parent="1" target="4">
                    <mxGeometry width="50" height="50" relative="1" as="geometry">
                        <mxPoint x="300" y="200" as="sourcePoint"/>
                        <mxPoint x="290" y="150" as="targetPoint"/>
                    </mxGeometry>
                </mxCell>
                <mxCell id="11" value="" style="endArrow=none;html=1;fontSize=18;entryX=0.5;entryY=1;entryDx=0;entryDy=0;" edge="1" parent="1" target="3">
                    <mxGeometry width="50" height="50" relative="1" as="geometry">
                        <mxPoint x="540" y="200" as="sourcePoint"/>
                        <mxPoint x="580" y="140" as="targetPoint"/>
                    </mxGeometry>
                </mxCell>
            </root>
        </mxGraphModel>
    </diagram>
</mxfile>